# AST/ASF file generated using VICON BodyLanguage
# -----------------------------------------------
:version 1.10
:name VICON
:units
  mass 1.0
  length 0.45
  angle deg
:documentation
   .ast/.asf automatically generated from VICON data using
   VICON BodyBuilder and BodyLanguage model FoxedUp or BRILLIANT.MOD
:root
   order TX TY TZ RX RY RZ
   axis XYZ
   position 0 0 0  
   orientation 0 0 0 
:bonedata
  begin
     id 1 
     name lhipjoint
     direction 0.535335 -0.74333 0.401095 
     length 2.04549 
     axis 0 0 0  XYZ
  end
  begin
     id 2 
     name lfemur
     direction 0.34202 -0.939693 0  
     length 6.95643  
     axis 0 0 20  XYZ
    dof rx ry rz
    limits (-160.0 20.0)
           (-70.0 70.0)
           (-60.0 70.0)
  end
  begin
     id 3 
     name ltibia
     direction 0.34192 -0.939729 0   
     length 5.55969   
     axis 0 0 20   XYZ
    dof rx
    limits (-10.0 170.0)
  end
  begin
     id 4 
     name lfoot
     direction 0.216943 -0.596046 0.773088   
     length 2.27918   
     axis -90 7.62852e-016 20   XYZ
    dof rx rz
    limits (-45.0 90.0)
           (-70.0 20.0)
  end
  begin
     id 5 
     name ltoes
     direction 1.53519e-011 -4.21748e-011 1   
     length 1.05562   
     axis -90 7.62852e-016 20   XYZ
    dof rx
    limits (-90.0 20.0)
  end
  begin
     id 6 
     name rhipjoint
     direction -0.576368 -0.719173 0.38806   
     length 2.1142  
     axis 0 0 0  XYZ 
  end
  begin
     id 7 
     name rfemur
     direction -0.34202 -0.939693 0   
     length 7.07928   
     axis 0 0 -20   XYZ
    dof rx ry rz
    limits (-160.0 20.0)
           (-70.0 70.0)
           (-70.0 60.0)
  end
  begin
     id 8 
     name rtibia
     direction -0.34202 -0.939693 0   
     length 5.79974   
     axis 0 0 -20   XYZ
    dof rx
    limits (-10.0 170.0)
 end
 begin
     id 9 
     name rfoot
     direction -0.189288 -0.520065 0.832888   
     length 2.42173  
     axis -90 -7.62852e-016 -20   XYZ
    dof rx rz
    limits (-45.0 90.0)
           (-20.0 70.0)
  end
  begin
     id 10 
     name rtoes
     direction -1.53574e-011 -4.21658e-011 1   
     length 1.14469   
     axis -90 -7.62852e-016 -20   XYZ
    dof rx
    limits (-90.0 20.0)
  end
  begin
     id 11 
     name lowerback
     direction -0.00135702 0.993803 0.111144   
     length 1.91308   
     axis 0 0 0   XYZ
    dof rx ry rz
    limits (-20.0 45.0)
           (-30.0 30.0)
           (-30.0 30.0)
  end
  begin
     id 12 
     name upperback
     direction -0.0056745 0.999813 0.0184631   
     length 1.9212   
     axis 0 0 0   XYZ
    dof rx ry rz
    limits (-20.0 45.0)
           (-30.0 30.0)
           (-30.0 30.0)
  end
  begin
     id 13 
     name thorax
     direction -0.00733434 0.999426 -0.0330788   
     length 1.94196   
     axis 0 0 0   XYZ
    dof rx ry rz
    limits (-20.0 45.0)
           (-30.0 30.0)
           (-30.0 30.0)
  end
  begin
     id 14 
     name lowerneck
     direction 0.0563074 0.996944 -0.0541571   
     length 2.34257   
     axis 0 0 0   XYZ
    dof rx ry rz
    limits (-20.0 45.0)
           (-30.0 30.0)
           (-30.0 30.0)
  end
  begin
     id 15 
     name upperneck
     direction -0.0544519 0.976166 -0.210085   
     length 2.32506   
     axis 0 0 0   XYZ
    dof rx ry rz
    limits (-20.0 45.0)
           (-30.0 30.0)
           (-30.0 30.0)
  end
  begin
     id 16
     name head
     direction -0.0226035 0.997615 -0.0652205  
     length 2.3648  
     axis 0 0 0   XYZ
    dof rx ry rz
    limits (-20.0 45.0)
           (-30.0 30.0)
           (-30.0 30.0)
  end
  begin
     id 17 
     name lclavicle
     direction 0.92109 0.381297 -0.0787716  
     length 4.0487  
     axis 0 0 0   XYZ
    dof ry rz
    limits (-20.0 10.0)
           (0.0 20.0)
  end
  begin
     id 18 
     name lhumerus
     direction 1 -4.48986e-011 3.56724e-027   
     length 4.94991   
     axis 180 -30 -90   XYZ
    dof rx ry rz
    limits (-60.0 90.0)
           (-90.0 90.0)
           (-90.0 90.0)
  end
  begin
     id 19
     name lradius
     direction 1 -4.48981e-011 8.62147e-027   
     length 2.7606   
     axis 180 -30 -90   XYZ
    dof rx
    limits (-10.0 170.0)
  end
  begin
     id 20
     name lwrist
     direction 1 -4.48989e-011 1.59799e-026   
     length 1.3803   
     axis -1.17785e-014 90 90   XYZ
    dof ry
    limits (-180.0 0.0)
 end
  begin
     id 21 
     name lhand
     direction 1 -4.48896e-011 3.19599e-026   
     length 0.843936   
     axis -2.03931e-014 90 90   XYZ
    dof rx rz
    limits (-90.0 90.0)
           (-45.0 45.0)
  end
  begin
     id 22 
     name lfingers
     direction 1 -4.48887e-011 6.39197e-026   
     length 0.680403   
     axis -4.07862e-014 90 90   XYZ
    dof rx
    limits (0.0 90.0)
  end
  begin
     id 23
     name lthumb
     direction 0.707107 -6.348e-011 0.707107   
     length 0.976926   
     axis -90 45 2.85299e-015   XYZ
    dof rx rz
    limits (-45.0 45.0)
           (-45.0 45.0)
  end
  begin
     id 24 
     name rclavicle
     direction -0.951104 0.307692 -0.026953   
     length 4.21801  
     axis 0 0 0   XYZ 
    dof ry rz
    limits (-10.0 20.0)
           (-20.0 0.0)
  end
  begin
     id 25 
     name rhumerus
     direction -1 -4.4896e-011 -1.8171e-018  
     length 4.32982   
     axis 180 30 90   XYZ
    dof rx ry rz
    limits (-90.0 60.0)
           (-90.0 90.0)
           (-90.0 90.0)
  end
  begin
     id 26 
     name rradius
     direction -1 -4.48959e-011 8.25165e-027   
     length 3.20057   
     axis 180 30 90   XYZ
    dof rx
    limits (-10.0 170.0)
  end
  begin
     id 27 
     name rwrist
     direction -1 -4.48997e-011 1.59799e-026   
     length 1.60029   
     axis -1.17785e-014 -90 -90   XYZ
    dof ry
    limits (-180.0 0.0)
  end
  begin
     id 28
     name rhand
     direction -1 -4.49023e-011 3.19599e-026   
     length 0.960433   
     axis -2.03931e-014 -90 -90   XYZ
    dof rx rz
    limits (-90.0 90.0)
           (-45.0 45.0)
  end
  begin
     id 29
     name rfingers
     direction -1 -4.48802e-011 6.39197e-026   
     length 0.774326   
     axis -4.07862e-014 -90 -90   XYZ
    dof rx
    limits (0.0 90.0)
  end
  begin
     id 30
     name rthumb
     direction -0.707107 -6.34876e-011 0.707107   
     length 1.11178   
     axis -90 -45 -2.85299e-015   XYZ
    dof rx rz
    limits (-45.0 45.0)
           (-45.0 45.0)
  end
:hierarchy
  begin
    root lhipjoint rhipjoint lowerback
    lhipjoint lfemur
    lfemur ltibia
    ltibia lfoot
    lfoot ltoes
    rhipjoint rfemur
    rfemur rtibia
    rtibia rfoot
    rfoot rtoes
    lowerback upperback
    upperback thorax
    thorax lowerneck lclavicle rclavicle
    lowerneck upperneck
    upperneck head
    lclavicle lhumerus
    lhumerus lradius
    lradius lwrist
    lwrist lhand lthumb
    lhand lfingers
    rclavicle rhumerus
    rhumerus rradius
    rradius rwrist
    rwrist rhand rthumb
    rhand rfingers
end

#!OML:ASF C:\KaitlinTest1\Natural Motions\Nikki\Session 2\Nikki.ASF
:FULLY-SPECIFIED
:DEGREES
345
root -13.3856 15.987 5.12904 -336.24 91.6139 -347.059
lowerback -8.64571 -1.67843 0.182768
upperback -5.54897 -2.04023 -1.07949
thorax -0.945926 -0.957935 -1.37134
lowerneck -17.3576 -13.9684 -7.42866
upperneck 2.58213 42.0328 4.58555
head 168.249 53.1209 -38.0745
rclavicle 1.27719e-014 8.34896e-015
rhumerus -40.8064 5.19017 -100.349
rradius 42.8441
rwrist -1.77818
rhand -43.088 14.235
rfingers 7.12502
rthumb -15.9431 -15.1289
lclavicle 1.27719e-014 8.34896e-015
lhumerus -38.3231 29.5084 75.1315
lradius 22.3569
lwrist -30.6616
lhand -35.1743 5.47009
lfingers 7.12502
lthumb -8.31302 35.2865
rfemur -24.9448 -9.27976 19.9742
rtibia 44.2226
rfoot -24.7327 1.11602
rtoes -1.66979e-014
lfemur -26.3544 -0.799865 -17.4212
ltibia 38.8076
lfoot -13.0021 3.16142
ltoes -1.59028e-015
346
root -13.3811 16.0824 5.12654 -339.761 91.8871 -350.713
lowerback -8.88831 -1.79985 0.213643
upperback -5.66429 -2.19369 -1.06782
thorax -0.937733 -1.03182 -1.39399
lowerneck -17.0969 -14.021 -7.27176
upperneck 2.49315 41.1745 4.46659
head 167.396 54.2291 -38.4358
rclavicle -1.04362e-014 -1.19271e-015
rhumerus -40.6036 4.0394 -99.9418
rradius 40.1221
rwrist -2.11706
rhand -42.9814 13.543
rfingers 7.12502
rthumb -15.8404 -15.829
lclavicle -1.04362e-014 -1.19271e-015
lhumerus -40.7113 32.7738 71.9049
lradius 20.3423
lwrist -32.8138
lhand -35.6183 5.90845
lfingers 7.12502
lthumb -8.74145 35.7074
rfemur -23.9059 -9.3732 19.9347
rtibia 42.0546
rfoot -23.94 1.13901
rtoes 1.27222e-014
lfemur -25.3958 -0.953084 -17.43
ltibia 36.6554
lfoot -12.1501 2.83702
ltoes -6.36111e-014
347
root -13.3747 16.1787 5.11742 -340.646 91.9039 -351.837
lowerback -9.30348 -1.83144 0.308246
upperback -5.78223 -2.23005 -1.04787
thorax -0.837464 -1.04744 -1.44082
lowerneck -16.9236 -13.9637 -7.23585
upperneck 2.51137 41.0098 4.47334
head 167.234 54.6344 -38.5181
rclavicle 8.24956e-015 2.78299e-015
rhumerus -40.2809 2.4366 -99.0456
rradius 37.0828
rwrist -0.928441
rhand -42.6427 13.0469
rfingers 7.12502
rthumb -15.5142 -16.3507
lclavicle 8.24956e-015 2.78299e-015
lhumerus -44.1225 37.0042 67.082
lradius 18.5904
lwrist -37.4392
lhand -35.1168 6.4705
lfingers 7.12502
lthumb -8.25747 36.2891
rfemur -23.0133 -9.33809 19.8603
rtibia 39.8279
rfoot -23.101 1.31153
rtoes 2.54444e-014
lfemur -24.4353 -0.874895 -17.4891
ltibia 34.3942
lfoot -11.3054 2.5776
ltoes 6.83819e-014
348
root -13.3608 16.2617 5.11073 -337.938 91.8518 -349.006
lowerback -9.50975 -1.77883 0.51849
upperback -5.76661 -2.17429 -1.03015
thorax -0.714761 -1.02343 -1.54265
lowerneck -16.7447 -13.9166 -7.24581
upperneck 2.54139 40.9044 4.48591
head 167.13 55.0145 -38.5922
rclavicle 5.81445e-015 4.77083e-015
rhumerus -40.0455 0.653734 -97.9697
rradius 34.2838
rwrist 0.0604298
rhand -42.2762 12.1049
rfingers 7.12502
rthumb -15.1612 -17.3197
lclavicle 5.81445e-015 4.77083e-015
lhumerus -47.9048 40.0056 62.5186
lradius 17.8417
lwrist -40.6565
lhand -34.6152 7.52671
lfingers 7.12502
lthumb -7.77339 37.3638
rfemur -21.635 -9.09422 19.8845
rtibia 37.5462
rfoot -22.3368 1.22406
rtoes -3.97569e-014
lfemur -23.0291 -0.648468 -17.3931
ltibia 32.0746
lfoot -10.5692 2.31821
ltoes -9.70069e-014
349
root -13.3532 16.3371 5.1077 -334.859 91.9574 -345.964
lowerback -9.82041 -1.76791 0.72621
upperback -5.78748 -2.17174 -0.97186
thorax -0.573041 -1.02367 -1.60834
lowerneck -16.5601 -13.9234 -7.22402
upperneck 2.53438 40.5877 4.45305
head 166.796 55.5462 -38.7638
rclavicle -5.01931e-015 -1.19271e-015
rhumerus -39.8035 -1.7034 -96.4747
rradius 31.4878
rwrist 1.81621
rhand -41.4427 11.2573
rfingers 7.12502
rthumb -14.3582 -18.2261
lclavicle -5.01931e-015 -1.19271e-015
lhumerus -51.3989 41.4804 59.1069
lradius 17.9167
lwrist -41.7179
lhand -34.233 8.57767
lfingers 7.12502
lthumb -7.40451 38.4281
rfemur -20.4081 -8.85247 19.9988
rtibia 35.2555
rfoot -21.5861 1.02563
rtoes -4.05521e-014
lfemur -21.8756 -0.496799 -17.2092
ltibia 29.7791
lfoot -9.71354 1.9453
ltoes -2.8625e-014
350
root -13.3519 16.41 5.10031 -337.523 91.9146 -348.747
lowerback -9.99573 -1.7525 0.765265
upperback -5.90522 -2.146 -0.994285
thorax -0.601896 -1.00917 -1.65471
lowerneck -16.3317 -13.9465 -7.20286
upperneck 2.49297 40.0776 4.38359
head 166.347 56.207 -38.9539
rclavicle 1.54058e-014 -5.96354e-015
rhumerus -39.7415 -4.34344 -94.7596
rradius 28.9615
rwrist 3.96584
rhand -41.0008 10.0686
rfingers 7.12502
rthumb -13.9324 -19.4446
lclavicle 1.54058e-014 -5.96354e-015
lhumerus -55.755 43.9637 53.6683
lradius 17.0267
lwrist -44.3645
lhand -34.2418 9.00098
lfingers 7.12502
lthumb -7.41296 38.8511
rfemur -19.3833 -8.90482 19.8171
rtibia 32.989
rfoot -20.7255 1.17728
rtoes 4.92986e-014
lfemur -20.8263 -0.335532 -17.3667
ltibia 27.5074
lfoot -8.8277 1.65963
ltoes 3.81667e-014
351
root -13.3521 16.4717 5.094 -337.336 91.8578 -348.643
lowerback -10.233 -1.71986 0.87352
upperback -5.94813 -2.10677 -1.00599
thorax -0.521 -0.989817 -1.73074
lowerneck -16.1245 -13.9416 -7.13355
upperneck 2.41032 39.442 4.32509
head 165.89 57.1523 -39.1867
rclavicle -1.75427e-014 -4.77083e-015
rhumerus -39.7417 -7.03982 -93.009
rradius 26.7637
rwrist 5.62602
rhand -40.8061 9.02699
rfingers 7.12502
rthumb -13.7448 -20.499
lclavicle -1.75427e-014 -4.77083e-015
lhumerus -61.5792 46.9326 45.9808
lradius 15.8783
lwrist -48.5912
lhand -34.1458 8.78741
lfingers 7.12502
lthumb -7.32029 38.6408
rfemur -18.37 -8.93862 19.7612
rtibia 30.8875
rfoot -19.8925 1.3351
rtoes -6.2816e-014
lfemur -19.7764 -0.0905277 -17.4248
ltibia 25.3177
lfoot -7.89805 1.33457
ltoes -3.49861e-014
352
root -13.3498 16.5294 5.08607 -339.34 91.7825 -350.791
lowerback -10.4575 -1.67397 0.965115
upperback -6.11344 -2.04186 -1.04893
thorax -0.574484 -0.956418 -1.82471
lowerneck -15.8041 -13.9053 -7.15575
upperneck 2.50733 39.4391 4.38229
head 165.917 57.3081 -39.1573
rclavicle -2.10215e-014 -1.43125e-014
rhumerus -40.0592 -10.2021 -90.8012
rradius 24.5897
rwrist 7.82524
rhand -40.3797 7.70119
rfingers 7.12502
rthumb -13.3338 -21.8522
lclavicle -2.10215e-014 -1.43125e-014
lhumerus -68.6954 49.1591 36.9354
lradius 15.0783
lwrist -53.7983
lhand -33.6659 8.93403
lfingers 7.12502
lthumb -6.85702 38.803
rfemur -17.488 -9.04198 19.6308
rtibia 28.8287
rfoot -18.9611 1.62071
rtoes -2.94201e-014
lfemur -18.8791 0.29431 -17.6141
ltibia 23.2614
lfoot -6.96491 0.875374
ltoes -6.83819e-014
353
root -13.348 16.574 5.0848 -349.522 91.6694 -361.199
lowerback -10.8247 -1.628 0.699511
upperback -6.23183 -1.94452 -1.13821
thorax -0.488535 -0.896731 -1.76777
lowerneck -15.5622 -14.0005 -7.10108
upperneck 2.45621 38.7884 4.29781
head 165.217 58.1548 -39.5333
rclavicle 2.88238e-014 1.82882e-014
rhumerus -40.4601 -13.4983 -88.3624
rradius 22.6609
rwrist 9.69681
rhand -39.9243 6.09572
rfingers 7.12502
rthumb -12.8948 -23.4859
lclavicle 2.88238e-014 1.82882e-014
lhumerus -68.267 46.8665 39.5267
lradius 17.0167
lwrist -50.3222
lhand -31.9615 10.4201
lfingers 7.12502
lthumb -5.21154 40.336
rfemur -16.7988 -9.20259 19.2466
rtibia 26.9508
rfoot -18.0279 1.93745
rtoes 6.36111e-015
lfemur -18.2101 0.660059 -18.0861
ltibia 21.3621
lfoot -5.98261 0.398229
ltoes 4.13472e-014
